PathFileType	4	(X/Y/Z)	Patient4_TMGait_0pt4_01_left_25.trc.trc
DataRate	CameraRate	NumFrames	NumMarkers	Units	OrigDataRate	OrigDataStartFrame	OrigNumFrames
78.212290502793	78.212290502793	6	33	mm	78.212290502793	18	       141
Frame#	Time	Sacral			L.Shoulder			Chest			R.Shoulder			Neck			R.ASIS			L.ASIS			R.Thigh.Superior			R.Thigh.Lateral			R.Thigh.Inferior			R.Patella			L.Thigh.Superior			L.Thigh.Lateral			L.Thigh.Inferior			L.Patella			L.Shank.Superior			L.Shank.Lateral			L.Shank.Inferior			R.Shank.Superior			R.Shank.Lateral			R.Shank.Inferior			R.Heel			R.Midfoot.Superior			R.Midfoot.Lateral			R.Toe			L.Heel			L.Midfoot.Lateral			L.Midfoot.Superior			L.Toe			L.Elbow			L.Wrist			R.Elbow			R.Wrist			
		X1	Y1	Z1	X2	Y2	Z2	X3	Y3	Z3	X4	Y4	Z4	X5	Y5	Z5	X6	Y6	Z6	X7	Y7	Z7	X8	Y8	Z8	X9	Y9	Z9	X10	Y10	Z10	X11	Y11	Z11	X12	Y12	Z12	X13	Y13	Z13	X14	Y14	Z14	X15	Y15	Z15	X16	Y16	Z16	X17	Y17	Z17	X18	Y18	Z18	X19	Y19	Z19	X20	Y20	Z20	X21	Y21	Z21	X22	Y22	Z22	X23	Y23	Z23	X24	Y24	Z24	X25	Y25	Z25	X26	Y26	Z26	X27	Y27	Z27	X28	Y28	Z28	X29	Y29	Z29	X30	Y30	Z30	X31	Y31	Z31	X32	Y32	Z32	X33	Y33	Z33	

18	30.447357142857	814.725842745583	1006.548245937011	517.807861181591	969.944576406762	1427.927869134728	306.034981364744	1097.755387655780	1359.406915662557	448.083553193694	1047.929890708785	1441.908810277800	630.589705376068	991.738739342099	1492.940152639620	459.547513698517	1054.756591053291	937.088119723745	603.242765780087	1006.846120003387	962.549361317922	332.076830947747	1060.169449392456	727.071730226835	572.053147178059	967.860579142224	628.471485097775	641.873565235148	1025.442060441164	567.003516688780	555.741545946366	1010.499000073974	482.631996702105	561.044918882727	1085.238804545953	780.659921612717	363.420196893198	1044.789772389900	653.644561508764	280.891310408575	1144.730108228954	593.990343182493	347.348244343693	1174.128307457689	529.358042927793	339.361526660405	1155.721448258882	456.360556110328	328.113114963212	1087.274951684121	328.557005875197	273.504567279834	1171.707793343664	226.155817381232	328.087952457363	976.024759433099	396.374830824003	570.225131474809	900.555457158410	299.234518241642	637.413741739858	925.918433548345	201.855654410505	570.201173779137	776.882037152807	43.199477917611	549.637637231115	950.038831244386	96.065280050992	576.740249261415	863.313060144838	36.940100273197	620.713938887014	1071.090037686065	42.255368117788	600.099114314655	1082.957655369436	49.466841588933	364.208621997436	1159.715867449097	49.169902224510	287.245685481919	1232.119836148490	125.951545012933	307.921495790303	1365.628680500126	92.209072927633	287.972871193479	869.365460374595	1083.582151973993	215.207227146909	897.244786337571	826.083150747289	180.231570960409	1140.941901207621	1109.968959139941	747.361173681946	1363.027023488886	1060.649454685487	634.749331257792	
19	30.460142857143	815.429584884160	1005.538085920806	516.270852084896	969.647528402436	1427.079738679554	304.267910325789	1097.536623931475	1358.888862683113	446.401645493093	1047.376579756560	1441.293582254738	628.840606878278	991.227914933047	1492.148202901411	457.810364940116	1055.451608171116	936.590222285479	602.223720544782	1007.746311491572	961.301031735795	330.766310123601	1059.829265624478	726.179183330544	571.328832758054	966.636983184671	627.995976170641	641.039124717624	1023.865524482595	566.077800363616	555.128378243222	1008.244895382272	481.701633624596	560.362641864008	1085.749797390487	778.487311090710	361.346129429640	1042.185251269431	650.753676200066	280.783334156746	1143.093301662446	591.150072157572	345.429490794514	1171.599914852278	526.660707669245	338.735118440227	1153.450736795051	453.729629312094	328.014357610393	1084.814829638958	325.710070463358	274.581853027364	1169.686210932984	223.718912095567	329.043106141116	973.181862225353	395.610028830724	569.688123376512	897.064567264340	299.092920595736	637.182443959783	921.624758517478	201.438667983589	570.022961472488	771.728394781002	43.220872668335	549.671304766283	944.876734901087	96.029705310775	576.755998149514	858.141351037001	36.918834915326	620.776148463627	1065.918002043819	42.233118026328	600.131275093752	1081.188905606947	47.924148590351	366.624120319461	1157.204575157467	47.045695080173	288.996364697824	1230.286311688834	123.053713657381	309.013570355480	1363.231042298890	88.303469232360	287.977423798457	868.039038091839	1083.026784406989	214.097136089986	895.079748537862	825.367760686509	179.491202362158	1142.621821275673	1109.217630231222	743.313136257584	1364.003956018905	1062.152717587529	628.526623368399	
20	30.472928571429	816.374820532721	1004.414333635398	514.476171961265	969.389703750785	1426.131836043508	302.287545415081	1097.339162724373	1358.414951099648	444.593409314319	1046.661644498655	1440.697446280979	626.929774140846	990.607498789071	1491.304529756279	455.856379844287	1056.353540707834	936.032121955646	601.126489007070	1009.008774819166	960.010448634162	329.392936718790	1059.630517972297	725.220881544007	570.453182010644	965.532414139422	627.492530782441	640.087423756663	1022.410840246818	565.083948163131	554.413051126282	1006.096355210602	480.700801452948	559.571992091935	1086.805529477850	776.297399442401	359.068730128226	1039.913658748066	647.750933453088	280.823352789325	1141.936577835110	588.316357512427	343.516858780983	1169.332595085760	523.653806332326	338.192555805273	1151.103331823168	450.682011182316	328.056675367721	1081.489453816552	322.840660287357	275.942148483219	1166.214019288297	220.804701642093	330.274458905109	970.430886163639	394.799418906935	569.063179364324	893.627732072675	298.951233331925	636.890317582295	917.347652232380	201.002390258303	569.804817199923	766.575601607851	43.219514360750	549.703212391497	939.708572125568	95.994821426066	576.765349537430	852.971107231440	36.883528931377	620.833591361067	1060.742922619517	42.199757387002	600.166361337083	1076.974275572319	46.462798189192	369.391467174158	1152.060567496561	44.887446059859	290.897744244140	1226.275215918492	119.590913759232	310.373511223285	1358.431919577446	83.187616052723	287.789171942309	867.087917767811	1082.299977442749	212.698149965767	893.623426870628	824.503662620551	178.501865792729	1143.704350725178	1108.411453468394	739.327974066698	1364.348890798472	1063.054245778149	622.521272177482	
21	30.485714285714	817.533192142494	1003.194834501576	512.436570737940	969.187612663895	1425.081370670567	300.095762202487	1097.185273387567	1357.969215816819	442.649294212964	1045.834486040986	1440.108451001410	624.855477718960	989.914164844920	1490.410055097013	453.684198764050	1057.445716345734	935.394319222752	599.926454885452	1010.602427102959	958.690329244325	327.960193660166	1059.591384739121	724.191317508812	569.427435682476	964.569180674283	626.947490944080	639.005681980694	1021.103024316635	564.023373492784	553.579059840112	1004.084930131010	479.613217354050	558.656938679641	1088.306859487543	774.083496479847	356.706879085325	1038.091329291084	644.746359789727	280.947227900790	1141.226812946575	585.535364867142	341.761155210017	1167.326039152588	520.425734577758	337.827845197957	1148.766876958221	447.333787654560	328.256437841849	1077.622829224952	319.975846333796	277.440557193507	1161.677431373709	217.528796271493	331.729305963314	967.790000735982	393.934715558400	568.333305480367	890.261790392187	298.805031382513	636.523369698070	913.091530945220	200.543270833548	569.534651396190	761.423591780012	43.195534603536	549.733908162782	934.535658214644	95.961023818101	576.763205694814	847.805488319242	36.835251951072	620.881559136149	1055.569236830623	42.149137316375	600.205984671846	1070.877736880800	45.027731860723	372.255992821202	1144.980916040309	42.769651584095	292.814984662647	1220.620899629445	115.772984291732	311.995894443913	1351.878093056377	77.302081696939	287.615109896678	866.504158883598	1081.392170890476	211.023969975646	892.860790399364	823.484060836554	177.260719553855	1144.205587971311	1107.535380251139	735.470527040587	1364.082046472194	1063.314780781354	616.784809694449	
22	30.498500000000	818.860758915788	1001.913258521603	510.174130246931	969.062592128664	1423.939990390618	297.696124166870	1097.097835086506	1357.541266311064	440.560353856979	1044.954427986130	1439.526738892290	622.615589868476	989.195294495726	1489.478593875078	451.293366956374	1058.697402256540	934.673428956842	598.598588817795	1012.472044083935	957.369614218635	326.467660394465	1059.735703779895	723.097612123797	568.258866352851	963.778009440161	626.352456655255	637.778096003976	1019.985177562503	562.906619077821	552.608599541799	1002.266340000009	478.422743611612	557.601411989320	1090.143838595715	771.871494139474	354.384750496228	1036.822312906287	641.872862968715	281.077901687083	1140.931543359988	582.877698788605	340.279947325311	1165.594099170148	517.107528060289	337.700434421288	1146.547810800486	443.844551800804	328.597726501429	1073.569820128892	317.186069140945	278.911053952096	1156.503316022440	214.066463642150	333.323636023457	965.291225473534	393.011143175990	567.481493729914	886.992515307030	298.658261395152	636.067557079733	908.869175813263	200.064551700279	569.202011829978	756.272715488908	43.162050301164	549.763993787079	929.365316137279	95.930560455343	576.745483476419	842.648404135819	36.780729985442	620.914169839702	1050.404008797982	42.073974428214	600.251701753630	1063.528511756972	43.619544107578	374.976408047122	1136.712562531205	40.797653643892	294.616477971272	1213.901035153629	111.862526192728	313.828793367547	1344.251109354654	71.147209617895	287.607982758560	866.284875759089	1080.308520384431	209.091883080782	892.771754798038	822.315920077105	175.771239880749	1144.149864260147	1106.587718415671	731.799037236924	1363.225500205674	1062.892693928149	611.368302597334	
23	30.511285714286	820.301747928263	1000.619116182482	507.720383060381	969.037653079358	1422.736096666703	295.095936487893	1097.098376925557	1357.129167621471	438.319593524160	1044.088417962967	1438.967662362167	620.208561830385	988.504973461178	1488.538168989608	448.686562106694	1060.064425733842	933.886332234449	597.120002844024	1014.540665057096	956.092962413771	324.908286454787	1060.084256826306	721.962515646988	566.956177974801	963.196229702046	625.707178879223	636.389300657866	1019.116350611892	561.754503647391	551.485502194198	1000.721320798628	477.115877357262	556.396956406312	1092.208981344093	769.726742276467	352.216187672691	1036.188096648984	639.274129760386	281.133790861264	1141.021879360976	580.435203519661	339.143083964700	1164.167058372010	513.862918867858	337.821163181768	1144.561884427611	440.400017810909	329.032920386031	1069.677160504522	314.573615216878	280.182651758621	1151.112877542158	210.625540707720	334.949208687590	962.981600629131	392.029674994401	566.496854851064	883.853966490541	298.526270172379	635.511667197279	904.703684839970	199.578972573344	568.801683583438	751.124944209458	43.150298519594	549.794120960598	924.212705564466	95.907608306550	576.710324627607	837.505149404987	36.734497088072	620.925066018592	1045.256772799518	41.966287676658	600.304750940704	1055.551721846812	42.280210408135	377.356297269793	1127.966506954518	39.077014645520	296.189889926382	1206.671921086906	108.132216872045	315.772156172694	1336.192069564949	65.212477487771	287.837292077335	866.433030071523	1079.072042798624	206.920958270021	893.333849679080	821.022766084264	174.042938605893	1143.566543449494	1105.583881792326	728.361430593171	1361.800329963068	1061.746562083396	606.320911192682	
